<?xml version="1.0" standalone="no"?>
<!DOCTYPE svg PUBLIC "-//W3C//DTD SVG 20010904//EN"
 "http://www.w3.org/TR/2001/REC-SVG-20010904/DTD/svg10.dtd">
<svg version="1.0" xmlns="http://www.w3.org/2000/svg"
 width="300.000000pt" height="176.000000pt" viewBox="0 0 300.000000 176.000000"
 preserveAspectRatio="xMidYMid meet">
<metadata>
Created by potrace 1.10, written by Peter Selinger 2001-2011
</metadata>
<g transform="translate(0.000000,176.000000) scale(0.100000,-0.100000)"
fill="#000000" stroke="none">
<path d="M1290 1638 c-21 -23 -26 -48 -11 -63 8 -8 17 -152 12 -188 -1 -4 -15
0 -32 9 -30 15 -32 15 -54 -6 -20 -19 -22 -26 -13 -51 8 -24 7 -34 -6 -48 -20
-22 -29 -105 -30 -281 -1 -133 -1 -135 -28 -163 -16 -15 -28 -31 -28 -35 -5
-243 -4 -336 2 -345 4 -7 8 67 8 164 l0 175 35 34 c44 43 56 33 16 -12 l-30
-35 -3 -177 c-2 -143 -1 -173 10 -159 6 9 12 29 12 44 0 33 15 45 34 29 8 -6
31 -12 52 -13 34 -2 41 -7 56 -37 l18 -35 0 43 c0 23 5 42 10 42 6 0 10 -19
11 -42 1 -43 1 -43 11 -13 6 17 12 32 14 34 5 6 147 8 162 3 8 -3 18 -14 22
-26 8 -18 9 -17 9 12 1 37 21 44 21 7 0 -32 16 -32 24 0 4 17 16 27 39 33 31
8 32 8 44 -32 l11 -41 1 50 c2 74 21 95 21 23 0 -31 5 -60 10 -63 6 -4 10 19
10 61 l0 67 47 44 c26 23 50 43 54 43 8 0 18 -61 20 -110 0 -29 2 -31 9 -15 5
11 9 107 9 213 1 125 5 192 11 192 17 0 23 -29 10 -45 -6 -8 -8 -20 -4 -26 5
-9 11 -7 21 6 19 27 16 55 -8 82 -18 18 -20 25 -9 38 8 10 13 59 14 152 1 76
6 150 10 165 7 23 2 34 -35 77 -23 28 -47 51 -54 51 -24 0 -49 -29 -50 -56 l0
-29 -94 -3 c-52 -1 -102 0 -110 4 -9 4 -19 6 -23 6 -11 -3 -10 4 7 45 18 44
13 66 -20 81 -21 10 -28 9 -45 -8 -23 -23 -23 -23 -9 -74 12 -45 6 -53 -42
-61 -34 -5 -37 -4 -42 21 -3 15 1 47 8 70 11 39 11 45 -7 63 -10 12 -23 21
-29 21 -6 0 -7 14 -4 34 6 27 2 39 -14 55 -26 26 -35 26 -61 -1z m53 -23 c4
-8 2 -17 -3 -20 -6 -4 -10 -68 -10 -146 0 -86 -4 -139 -10 -139 -6 0 -10 53
-10 139 0 78 -4 142 -10 146 -14 9 0 35 20 35 10 0 20 -7 23 -15z m47 -113 c0
-10 -3 -22 -7 -26 -5 -4 -6 -34 -5 -66 2 -34 -1 -60 -7 -64 -8 -5 -11 15 -11
61 0 38 -5 74 -11 80 -15 15 -3 33 22 33 12 0 19 -7 19 -18z m144 -25 c0 -9
-1 -35 -2 -57 -2 -48 -22 -54 -22 -7 0 18 -5 38 -11 44 -16 16 -3 45 18 41 10
-2 18 -11 17 -21z m308 -69 c-7 -7 -12 -20 -12 -31 0 -28 -18 -11 -25 24 -8
38 12 57 35 34 11 -12 12 -17 2 -27z m-585 -44 c3 -8 1 -20 -6 -27 -6 -6 -11
-18 -11 -27 0 -9 -9 -25 -20 -35 -11 -10 -20 -31 -20 -46 0 -15 -4 -31 -10
-34 -6 -4 -10 7 -10 26 0 22 9 42 27 61 24 25 25 30 14 52 -8 13 -10 29 -7 35
10 16 36 13 43 -5z m639 1 c3 -8 2 -20 -2 -27 -4 -7 -7 -72 -5 -145 3 -141 -2
-173 -25 -173 -10 0 -12 5 -7 13 13 21 15 288 2 303 -6 8 -9 21 -5 29 7 19 35
20 42 0z m-88 -17 c7 -7 12 -44 12 -94 l0 -82 -51 -38 -52 -38 29 -10 c90 -33
104 -60 104 -203 0 -84 -4 -116 -17 -141 -24 -43 -185 -169 -233 -182 -22 -6
-119 -9 -227 -8 l-188 3 -3 86 -3 87 52 45 52 45 -32 17 c-56 29 -71 66 -71
181 0 56 5 115 11 131 5 17 42 59 82 94 97 86 101 89 144 105 51 18 373 20
391 2z m37 -248 c-8 -35 -16 -37 -39 -12 -15 18 -15 21 5 46 19 25 23 26 31
12 5 -9 6 -30 3 -46z m-629 -282 c-3 -7 -9 -21 -12 -30 -4 -10 -10 -18 -15
-18 -13 0 -11 34 3 48 16 16 31 15 24 0z"/>
<path d="M1417 1326 c-83 -30 -107 -76 -107 -203 0 -150 34 -184 207 -208 102
-15 126 -29 105 -62 -5 -9 -53 -13 -157 -15 l-150 -3 -3 -73 c-2 -46 2 -79 9
-88 14 -18 300 -20 379 -3 65 14 114 59 130 119 16 59 7 192 -15 226 -25 38
-108 71 -197 79 -84 8 -110 23 -91 53 8 14 33 18 139 22 l129 5 0 80 0 80
-170 2 c-124 2 -180 -1 -208 -11z m51 -42 c-32 -18 -38 -17 -38 5 0 22 28 32
48 17 11 -7 8 -12 -10 -22z m130 18 c2 -7 -7 -12 -23 -12 -24 0 -26 2 -15 15
14 17 31 16 38 -3z m82 8 c0 -19 -31 -23 -48 -6 -15 15 -14 16 16 16 18 0 32
-5 32 -10z m84 -3 c13 -10 17 -24 14 -57 l-3 -45 -45 -3 -45 -3 23 21 c12 11
22 22 22 24 0 2 -58 3 -129 2 -164 -1 -171 -6 -171 -111 0 -50 4 -76 14 -84 8
-6 62 -21 122 -32 115 -22 158 -38 168 -64 3 -9 6 -45 6 -81 0 -56 -3 -67 -29
-96 l-29 -33 -146 -3 c-99 -2 -146 0 -146 7 0 7 43 11 125 11 190 0 209 13
203 135 -4 73 -8 75 -162 106 -139 28 -146 35 -146 133 0 119 25 135 208 132
100 -1 109 1 96 15 -10 12 -11 18 -2 27 15 15 30 15 52 -1z m-356 -51 c2 -16
-1 -33 -7 -39 -8 -8 -11 -4 -11 15 0 15 -3 34 -7 44 -4 12 -2 15 8 12 8 -2 15
-17 17 -32z m-23 -79 c7 -64 1 -125 -14 -140 -19 -19 -26 5 -25 85 2 117 3
118 18 112 9 -3 17 -26 21 -57z m115 -37 c0 -53 -4 -90 -10 -90 -6 0 -10 37
-10 90 0 53 4 90 10 90 6 0 10 -37 10 -90z m115 72 c5 -4 -12 -10 -40 -13 -53
-6 -60 -5 -52 8 7 11 78 14 92 5z m51 -167 c15 -11 16 -15 4 -16 -31 -3 -55 3
-70 17 -12 12 -10 14 16 14 17 0 39 -7 50 -15z m47 -38 c-7 -12 -23 3 -23 22
0 28 14 35 21 9 3 -13 4 -26 2 -31z m-303 -8 c0 -21 -4 -39 -10 -39 -5 0 -10
21 -10 46 0 27 4 43 10 39 6 -3 10 -24 10 -46z m370 -125 c0 -96 -4 -154 -10
-154 -6 0 -10 60 -10 161 0 104 3 158 10 154 6 -4 10 -68 10 -161z m-280 96
c0 -16 -4 -30 -10 -30 -5 0 -10 14 -10 30 0 17 5 30 10 30 6 0 10 -13 10 -30z
m310 -95 c0 -63 -4 -105 -10 -105 -11 0 -14 192 -3 203 12 13 13 7 13 -98z
m-123 61 c48 -45 15 -146 -47 -146 -39 0 -41 7 -10 40 33 35 30 60 -10 94 -19
15 -25 27 -19 33 15 15 61 3 86 -21z m-309 -181 c0 -29 -26 -73 -29 -49 -8 75
-5 96 16 88 7 -3 13 -20 13 -39z m287 -45 c4 -6 -8 -10 -29 -10 -20 0 -36 5
-36 10 0 6 13 10 29 10 17 0 33 -4 36 -10z"/>
<path d="M1890 695 c0 -82 3 -146 6 -143 7 7 6 279 -1 286 -3 3 -5 -61 -5
-143z"/>
<path d="M2794 360 c-17 -18 -36 -21 -130 -25 -60 -2 -113 -4 -119 -4 -5 -1
-27 2 -47 5 -25 4 -38 2 -38 -5 0 -14 -37 -14 -46 0 -4 7 -22 9 -48 5 -51 -8
-61 -8 -114 0 -24 4 -48 2 -55 -4 -8 -7 -18 -7 -27 -2 -8 6 -29 10 -47 10 -78
0 -100 -129 -28 -162 20 -9 34 -9 62 1 21 8 38 9 42 4 7 -12 81 -11 98 0 7 4
21 3 32 -3 26 -13 74 -13 88 1 7 7 17 8 29 1 25 -12 106 -5 115 10 6 9 13 8
27 -5 23 -21 31 -21 54 0 18 16 21 16 47 0 61 -36 111 -13 111 51 0 52 10 63
45 53 26 -6 31 -13 36 -51 6 -47 28 -70 68 -70 47 0 52 11 49 91 l-3 74 -46 1
c-33 1 -52 7 -67 22 -28 28 -62 28 -88 2z m86 -26 c0 -9 -12 -14 -35 -14 -27
0 -35 4 -35 18 0 15 6 17 35 14 21 -3 35 -10 35 -18z m-715 -35 c0 -8 -10 -15
-22 -17 -17 -3 -23 -10 -23 -28 0 -20 4 -25 22 -22 15 2 24 -3 26 -15 3 -16
-2 -18 -40 -15 l-43 3 0 50 c0 47 2 50 30 56 39 8 50 6 50 -12z m114 5 c8 -3
11 -12 8 -24 -3 -11 -1 -23 4 -26 5 -3 9 -16 9 -30 0 -17 -5 -24 -20 -24 -14
0 -20 7 -20 21 0 12 -5 19 -12 16 -7 -2 -12 -11 -10 -21 2 -10 -4 -16 -18 -16
-18 0 -20 6 -20 60 l0 60 33 -6 c17 -3 38 -8 46 -10z m139 -7 c3 -13 -4 -17
-25 -18 -17 -1 -21 -3 -10 -6 9 -2 17 -11 17 -18 0 -7 -8 -16 -17 -18 -11 -3
-7 -5 10 -6 17 -1 27 -7 27 -16 0 -11 -12 -15 -45 -15 l-45 0 0 53 c0 30 2 56
4 58 2 2 22 4 43 4 28 0 39 -5 41 -18z m111 1 c4 -13 11 -40 15 -60 6 -34 5
-38 -14 -38 -11 0 -20 7 -20 15 0 8 -7 15 -15 15 -8 0 -15 -7 -15 -15 0 -8 -7
-15 -15 -15 -10 0 -15 10 -15 33 0 55 10 76 39 80 14 2 27 5 29 6 1 0 6 -9 11
-21z m131 0 c0 -10 -7 -18 -16 -18 -13 0 -15 -7 -9 -40 6 -38 5 -40 -18 -40
-23 0 -25 3 -20 40 5 33 3 40 -11 40 -9 0 -16 8 -16 18 0 14 9 17 45 17 36 0
45 -3 45 -17z m118 -1 c3 -13 -4 -17 -25 -18 -23 -1 -24 -2 -5 -6 12 -2 22 -9
22 -14 0 -5 -10 -14 -22 -19 -22 -8 -22 -9 5 -9 17 -1 27 -6 27 -16 0 -11 -12
-15 -45 -15 l-44 0 3 58 c2 31 4 57 5 58 1 0 18 0 38 -1 27 0 39 -6 41 -18z
m212 -3 c0 -8 -11 -14 -27 -15 l-28 -1 25 -7 c19 -5 25 -13 25 -36 0 -28 -3
-30 -37 -30 -44 0 -56 19 -15 23 30 4 27 22 -4 22 -14 0 -19 7 -19 29 0 26 4
30 33 33 39 4 47 1 47 -18z"/>
<path d="M23 328 c-20 -10 -23 -19 -23 -71 0 -45 4 -63 17 -73 22 -16 79 -18
89 -3 3 6 16 8 28 5 39 -12 101 -14 113 -4 7 6 19 6 30 0 10 -5 36 -7 58 -5
45 5 53 5 115 0 25 -2 53 1 64 6 12 6 22 5 29 -2 14 -14 80 -14 94 0 8 8 21 7
47 -2 29 -10 43 -11 68 -1 19 7 36 8 42 3 6 -5 31 -7 56 -4 25 3 52 5 60 4 78
-8 106 -7 118 5 11 12 17 12 35 -1 55 -39 127 2 127 73 0 55 -19 75 -71 78
-24 1 -52 -2 -62 -8 -13 -6 -23 -6 -33 3 -9 7 -30 9 -62 5 -26 -4 -51 -6 -57
-6 -95 7 -224 6 -239 -2 -12 -7 -22 -6 -29 1 -14 14 -69 14 -102 -1 -19 -9
-28 -9 -37 0 -15 15 -81 15 -96 0 -9 -9 -18 -9 -37 0 -33 15 -68 15 -82 1 -7
-7 -19 -8 -30 -4 -26 12 -95 14 -117 3 -12 -7 -22 -6 -29 1 -14 14 -55 13 -84
-1z m82 -29 c0 -8 -11 -16 -25 -18 l-25 -4 25 -6 c20 -6 25 -13 25 -36 0 -28
-3 -30 -42 -33 -33 -2 -43 0 -43 12 0 8 11 16 28 18 l27 4 -28 12 c-39 17 -34
54 8 63 39 8 50 6 50 -12z m75 -5 c0 -16 5 -24 12 -22 7 3 13 13 13 24 0 10 8
20 18 22 15 3 17 -5 17 -57 0 -55 -2 -61 -21 -61 -16 0 -19 4 -14 20 5 14 2
20 -9 20 -9 0 -16 -9 -16 -20 0 -13 -7 -20 -20 -20 -17 0 -20 7 -20 53 0 30 3
57 7 60 15 16 33 5 33 -19z m186 -23 c3 -20 8 -44 11 -53 3 -13 -1 -18 -16
-18 -12 0 -21 7 -21 15 0 8 -7 15 -15 15 -8 0 -15 -7 -15 -15 0 -8 -7 -15 -15
-15 -17 0 -21 54 -6 93 8 20 15 23 40 19 26 -4 31 -9 37 -41z m123 33 c8 -3
11 -12 8 -24 -3 -11 -1 -23 4 -26 5 -3 9 -16 9 -30 0 -17 -5 -24 -20 -24 -14
0 -20 7 -20 21 0 12 -5 19 -12 16 -7 -2 -12 -11 -10 -21 2 -10 -4 -16 -18 -16
-18 0 -20 6 -20 60 l0 60 33 -6 c17 -3 38 -8 46 -10z m146 -49 l0 -50 -47 -3
-48 -3 0 54 c0 29 2 56 5 59 3 2 24 2 47 -1 l43 -6 0 -50z m125 44 c0 -14 -8
-19 -27 -20 -24 -2 -25 -2 -5 -6 12 -2 22 -9 22 -14 0 -5 -10 -14 -22 -19 -22
-8 -22 -9 5 -9 17 -1 27 -6 27 -16 0 -11 -11 -15 -39 -15 l-39 0 -4 56 c-1 31
-2 56 -1 57 1 1 20 3 42 4 34 1 41 -2 41 -18z m72 1 c7 -11 16 -20 20 -20 5 0
8 9 8 20 0 11 7 20 15 20 12 0 15 -13 15 -60 0 -47 -3 -60 -15 -60 -8 0 -15 6
-15 14 0 7 -7 19 -15 26 -13 11 -15 8 -15 -14 0 -18 -5 -26 -18 -26 -14 0 -17
9 -15 58 1 31 2 58 3 60 1 9 22 -2 32 -18z m190 -4 c12 -17 9 -71 -4 -84 -7
-7 -29 -12 -50 -12 l-38 0 0 59 0 59 43 -5 c23 -4 45 -11 49 -17z m78 -21 c0
-57 18 -59 22 -3 2 32 8 44 21 46 16 3 18 -3 15 -55 l-3 -58 -39 -3 c-46 -4
-56 7 -56 64 0 43 5 54 27 54 9 0 13 -14 13 -45z"/>
<path d="M580 255 c0 -17 5 -25 13 -22 16 5 16 39 0 45 -8 2 -13 -6 -13 -23z"/>
<path d="M962 258 c5 -32 28 -35 28 -4 0 17 -5 26 -16 26 -10 0 -14 -7 -12
-22z"/>
<path d="M1235 320 c-9 -10 -15 -36 -15 -62 0 -34 6 -50 25 -68 20 -18 27 -21
39 -11 11 9 20 10 35 1 15 -8 27 -8 42 1 15 8 24 8 32 0 14 -14 70 -14 83 -1
6 6 21 6 42 -2 25 -10 39 -10 63 -1 18 7 39 9 48 4 9 -4 36 -6 61 -4 25 1 53
3 63 3 9 0 37 0 62 0 25 0 53 1 63 1 9 1 38 -1 64 -4 41 -6 48 -4 62 18 20 30
20 56 2 100 -18 43 -57 56 -99 31 -27 -15 -31 -15 -47 -1 -19 17 -81 20 -97 4
-7 -7 -17 -8 -29 -1 -21 11 -94 9 -113 -2 -7 -4 -18 -2 -26 4 -9 8 -29 10 -52
6 -21 -3 -42 -6 -48 -5 -5 0 -63 1 -128 3 -98 2 -120 0 -132 -14z m59 -21 l14
-21 11 21 c7 12 18 21 26 21 12 0 15 -14 15 -60 0 -54 -2 -60 -21 -60 -17 0
-20 4 -15 24 5 20 2 24 -17 24 -20 0 -23 -5 -19 -24 3 -19 0 -24 -17 -24 -19
0 -21 6 -21 60 0 65 15 79 44 39z m184 3 c2 -7 -3 -15 -12 -18 -20 -8 -21 -43
-1 -50 8 -4 15 -12 15 -20 0 -10 -13 -14 -45 -14 -44 0 -60 15 -30 26 20 8 19
44 -2 59 -9 7 -13 16 -10 22 9 14 80 10 85 -5z m112 -2 c0 -14 -7 -20 -22 -21
-21 -1 -21 -2 -3 -6 30 -7 38 -19 31 -47 -6 -23 -12 -26 -46 -26 -29 0 -40 4
-40 15 0 9 10 15 28 16 l27 1 -28 11 c-22 9 -27 17 -25 37 3 23 15 30 71 39 4
0 7 -8 7 -19z m78 -8 c5 -31 22 -28 22 4 0 19 5 25 18 22 13 -2 18 -15 20 -61
3 -52 1 -57 -18 -57 -13 0 -20 7 -20 20 0 11 -4 20 -10 20 -5 0 -10 -9 -10
-20 0 -13 -7 -20 -20 -20 -18 0 -20 7 -20 61 0 52 2 60 18 57 9 -2 18 -13 20
-26z m186 -20 c9 -57 7 -72 -9 -72 -8 0 -15 9 -15 20 0 11 -7 20 -15 20 -8 0
-15 -9 -15 -20 0 -12 -7 -20 -17 -20 -15 0 -18 9 -16 57 1 32 2 58 2 58 1 0
18 -1 40 -3 36 -4 39 -7 45 -40z m127 22 c14 -36 10 -94 -6 -94 -8 0 -15 7
-15 15 0 8 -7 15 -15 15 -8 0 -15 -7 -15 -15 0 -8 -9 -15 -19 -15 -17 0 -19 5
-14 38 10 65 18 78 49 77 17 -1 30 -9 35 -21z"/>
</g>
</svg>
