<?xml version="1.0" standalone="no"?>
<!DOCTYPE svg PUBLIC "-//W3C//DTD SVG 20010904//EN"
 "http://www.w3.org/TR/2001/REC-SVG-20010904/DTD/svg10.dtd">
<svg version="1.0" xmlns="http://www.w3.org/2000/svg"
 width="300.000000pt" height="144.000000pt" viewBox="0 0 300.000000 144.000000"
 preserveAspectRatio="xMidYMid meet">
<metadata>
Created by potrace 1.10, written by Peter Selinger 2001-2011
</metadata>
<g transform="translate(0.000000,144.000000) scale(0.100000,-0.100000)"
fill="#000000" stroke="none">
<path d="M1444 1336 c-62 -29 -293 -163 -316 -184 -16 -13 -18 -38 -18 -227 0
-250 -20 -214 185 -333 157 -91 187 -104 212 -95 39 14 319 179 341 200 21 21
22 28 22 226 l0 204 -27 28 c-16 15 -48 38 -73 51 -25 13 -58 32 -75 42 -205
120 -192 115 -251 88z m224 -111 l172 -100 0 -201 0 -201 -176 -101 -176 -102
-174 101 -174 101 0 203 0 202 173 101 c94 55 174 99 177 99 3 -1 83 -47 178
-102z"/>
<path d="M1323 1207 l-162 -92 -1 -190 0 -190 157 -90 c86 -49 161 -91 167
-93 6 -1 83 39 171 90 l160 93 0 190 0 189 -160 93 c-88 51 -162 93 -165 93
-3 0 -78 -42 -167 -93z m77 -80 c-67 -113 -70 -120 -70 -182 0 -66 7 -79 34
-69 12 5 16 20 16 59 0 53 0 53 50 84 l50 31 0 -63 0 -62 -138 -75 c-75 -41
-140 -76 -144 -78 -5 -2 -8 70 -8 160 l0 163 118 67 c64 37 126 74 137 82 11
8 21 11 23 7 1 -4 -29 -60 -68 -124z m258 41 l122 -73 3 -162 c2 -90 2 -163 1
-163 -1 0 -33 54 -70 121 -64 113 -73 123 -127 155 -32 19 -63 32 -68 29 -20
-13 -7 -35 36 -61 l45 -26 0 -59 0 -59 -50 28 -50 27 0 168 c0 157 1 167 18
158 9 -6 72 -43 140 -83z m-192 -59 c-1 -23 -46 -61 -46 -39 0 18 32 70 40 65
4 -3 7 -14 6 -26z m222 -241 l21 -37 -32 14 c-28 12 -32 18 -35 57 -3 40 -2
41 11 23 8 -11 24 -37 35 -57z m-60 -37 c73 -44 133 -82 133 -86 0 -4 -19 -17
-43 -30 -24 -13 -85 -48 -136 -78 l-93 -54 -127 73 c-70 40 -134 78 -142 83
-10 7 32 10 129 10 142 1 144 1 202 33 33 18 59 36 59 41 0 20 -37 18 -77 -3
l-45 -24 -45 25 c-24 13 -47 27 -49 31 -4 7 73 55 91 57 6 1 70 -35 143 -78z
m-230 -23 c21 -21 13 -28 -28 -28 -22 0 -40 4 -40 8 0 14 23 32 40 32 9 0 21
-5 28 -12z"/>
<path d="M2754 400 c-8 -8 -179 -21 -282 -20 -18 0 -42 -5 -53 -10 -14 -8 -25
-7 -41 5 -25 17 -70 20 -96 6 -11 -6 -33 -5 -60 2 -31 8 -50 8 -71 0 -18 -6
-34 -7 -45 -1 -24 13 -81 -8 -100 -37 -25 -38 -20 -77 13 -109 27 -26 32 -27
97 -21 38 3 76 5 84 4 67 -5 308 -4 321 2 9 5 20 4 26 -2 7 -7 19 -6 36 2 21
9 30 9 42 -1 19 -16 92 -15 112 1 10 9 13 24 10 44 -7 44 0 54 31 46 20 -6 27
-14 28 -32 0 -13 6 -34 13 -46 16 -31 78 -32 110 -2 20 19 22 28 17 67 -9 65
-40 96 -89 88 -26 -5 -45 -2 -60 9 -25 18 -30 18 -43 5z m36 -35 c7 -9 10 -19
6 -22 -8 -9 -38 9 -44 25 -5 17 23 15 38 -3z m-420 -20 c0 -10 -10 -15 -30
-15 -16 0 -30 -4 -30 -10 0 -5 11 -10 25 -10 14 0 25 -4 25 -10 0 -5 -11 -10
-25 -10 -16 0 -25 -6 -25 -15 0 -10 10 -15 30 -15 17 0 30 -4 30 -10 0 -5 -20
-10 -45 -10 l-45 0 0 54 0 55 38 4 c20 2 40 4 45 5 4 1 7 -5 7 -13z m238 -1
c1 -5 -5 -10 -15 -12 -15 -2 -17 -11 -15 -47 3 -36 1 -45 -12 -45 -12 0 -16
10 -16 45 0 38 -3 45 -20 45 -11 0 -20 6 -20 13 0 14 93 15 98 1z m122 -5 c0
-5 -16 -9 -35 -9 -19 0 -35 -4 -35 -10 0 -5 11 -10 25 -10 14 0 25 -4 25 -10
0 -5 -11 -10 -25 -10 -16 0 -25 -6 -25 -15 0 -10 11 -15 35 -15 19 0 35 -4 35
-10 0 -5 -20 -10 -45 -10 l-45 0 0 54 0 55 38 3 c41 4 52 1 52 -13z m-613 -6
c3 -7 -8 -11 -29 -10 -28 2 -34 -2 -36 -22 -4 -29 14 -42 47 -34 17 4 22 2 19
-8 -2 -8 -18 -15 -35 -17 -23 -2 -35 3 -47 20 -20 29 -20 47 1 70 19 21 74 22
80 1z m130 1 c3 -9 1 -24 -5 -34 -8 -13 -7 -23 4 -39 13 -19 13 -21 0 -21 -8
0 -20 9 -26 20 -6 11 -20 20 -30 20 -13 0 -20 -7 -20 -20 0 -11 -6 -20 -12
-20 -9 0 -13 18 -13 55 l0 55 48 0 c35 0 49 -4 54 -16z m238 -26 c9 -24 19
-49 22 -55 3 -7 -2 -13 -11 -13 -9 0 -16 5 -16 10 0 14 -43 13 -57 -1 -6 -6
-15 -10 -21 -8 -13 6 35 109 52 109 7 0 22 -19 31 -42z m425 27 c0 -11 -7 -14
-25 -9 -14 3 -25 2 -25 -4 0 -5 14 -12 31 -16 26 -5 30 -10 27 -33 -3 -25 -7
-28 -42 -28 -23 0 -41 5 -44 13 -2 8 6 11 27 10 34 -3 48 15 14 20 -27 4 -47
27 -39 47 8 21 76 21 76 0z"/>
<path d="M2170 314 c0 -11 8 -14 27 -12 39 4 42 28 4 28 -21 0 -31 -5 -31 -16z"/>
<path d="M56 367 c-22 -22 -25 -33 -22 -78 3 -36 9 -57 22 -66 20 -15 132 -16
151 -1 7 5 19 6 30 1 10 -5 65 -8 123 -6 58 1 114 2 125 2 11 -1 115 -2 230
-4 116 -2 226 -5 245 -8 20 -3 52 1 72 8 21 7 42 9 50 4 24 -16 85 -10 110 11
25 19 25 19 44 -1 17 -19 27 -19 198 -15 100 3 187 5 194 5 17 -1 98 0 120 0
9 1 59 0 110 -2 79 -2 95 0 109 15 14 15 14 24 5 57 -24 79 -73 112 -113 76
-15 -14 -20 -14 -58 6 -37 19 -49 20 -109 12 -37 -5 -87 -8 -112 -5 -25 2 -61
3 -80 3 -19 0 -58 0 -87 0 -29 0 -61 -5 -73 -11 -15 -8 -25 -7 -43 5 -22 14
-26 14 -51 -6 -26 -20 -28 -21 -47 -3 -17 15 -23 15 -44 4 -20 -11 -27 -11
-40 0 -8 7 -24 10 -36 7 -11 -3 -34 -1 -51 5 -21 8 -49 7 -96 0 -36 -6 -71 -8
-76 -3 -6 4 -42 6 -81 5 -100 -4 -99 -4 -220 0 -91 3 -113 1 -128 -12 -15 -13
-22 -14 -37 -4 -25 15 -53 15 -67 1 -7 -7 -19 -8 -30 -3 -10 4 -49 9 -88 10
-38 1 -82 5 -97 9 -21 6 -32 2 -52 -18z m144 -38 c0 -14 7 -19 25 -19 20 0 25
5 25 26 0 14 5 24 11 22 6 -2 10 -7 10 -11 -1 -4 -1 -29 -1 -57 0 -27 -4 -50
-10 -50 -5 0 -10 11 -10 25 0 20 -5 25 -25 25 -20 0 -25 -5 -25 -25 0 -16 -6
-25 -15 -25 -11 0 -15 13 -15 53 0 30 3 57 6 60 11 10 24 -3 24 -24z m595 10
c-4 -5 -19 -9 -36 -9 -16 0 -29 -4 -29 -10 0 -5 11 -10 25 -10 14 0 25 -4 25
-10 0 -5 -11 -10 -25 -10 -16 0 -25 -6 -25 -15 0 -10 10 -15 30 -15 17 0 30
-4 30 -10 0 -5 -20 -10 -45 -10 l-45 0 0 54 0 55 43 3 c48 4 60 1 52 -13z
m126 8 c-1 -4 -1 -29 -1 -57 0 -62 -18 -66 -52 -12 l-23 37 -3 -37 c-5 -58
-22 -45 -22 17 0 67 20 74 53 18 l22 -38 3 43 c2 24 8 42 13 40 6 -2 10 -7 10
-11z m183 -38 c1 -40 3 -44 26 -44 23 0 25 4 28 48 4 57 25 60 30 4 5 -52 -12
-77 -51 -77 -45 0 -57 16 -57 73 0 63 23 59 24 -4z m197 4 l21 -48 19 43 c27
62 49 56 49 -13 0 -44 -3 -55 -16 -55 -12 0 -15 6 -10 25 4 14 2 25 -3 25 -5
0 -12 -11 -15 -25 -9 -34 -39 -32 -53 3 l-11 27 -1 -27 c-1 -16 -7 -28 -14
-28 -8 0 -11 17 -10 58 1 31 2 58 3 60 0 1 5 2 10 2 6 0 20 -21 31 -47z m139
-19 c0 -41 -4 -54 -15 -54 -11 0 -15 13 -15 53 0 30 3 57 6 60 15 15 24 -8 24
-59z m160 41 c0 -34 47 -37 52 -2 6 42 23 17 26 -38 2 -44 0 -55 -13 -55 -9 0
-15 9 -15 25 0 20 -5 25 -25 25 -20 0 -25 -5 -25 -25 0 -14 -6 -25 -12 -25 -9
0 -12 17 -11 57 2 70 1 63 13 63 6 0 10 -11 10 -25z m326 -30 c28 -65 28 -65
9 -65 -8 0 -15 5 -15 10 0 6 -11 10 -24 10 -14 0 -28 -4 -31 -10 -3 -5 -12
-10 -20 -10 -11 0 -9 11 8 48 26 54 36 72 43 72 3 0 16 -25 30 -55z m-1788 28
c2 -9 -5 -11 -29 -6 -23 4 -30 3 -25 -5 4 -7 15 -12 25 -12 22 0 41 -19 41
-42 0 -29 -78 -39 -87 -11 -3 7 7 10 24 10 33 -2 48 17 16 21 -28 4 -47 27
-39 48 7 18 67 16 74 -3z m246 -16 c27 -65 28 -77 12 -77 -9 0 -16 5 -16 10 0
6 -11 10 -25 10 -14 0 -25 -4 -25 -10 0 -5 -7 -10 -15 -10 -19 0 -19 2 6 61
25 57 43 62 63 16z m153 17 c3 -9 1 -24 -5 -34 -8 -13 -7 -23 4 -39 13 -19 13
-21 0 -21 -8 0 -20 9 -26 20 -6 11 -20 20 -30 20 -13 0 -20 -7 -20 -20 0 -11
-4 -20 -10 -20 -5 0 -10 25 -10 55 l0 55 45 0 c33 0 47 -5 52 -16z m131 4 c15
-15 16 -53 2 -79 -8 -14 -21 -19 -55 -19 l-45 0 0 55 0 55 43 0 c24 0 48 -5
55 -12z m368 4 c22 -14 26 -52 10 -77 -13 -20 -25 -25 -56 -25 l-40 0 0 55 0
55 38 0 c20 0 42 -4 48 -8z m504 -7 c0 -11 -7 -14 -25 -9 -35 9 -31 -5 6 -18
25 -8 30 -15 27 -37 -3 -23 -7 -26 -42 -26 -23 0 -41 5 -44 13 -2 8 6 12 29
10 18 -2 34 2 36 10 3 7 -3 12 -14 12 -29 0 -57 25 -50 44 9 22 77 23 77 1z
m261 -1 c10 -13 10 -19 0 -36 -9 -15 -10 -23 -2 -31 15 -15 14 -27 -4 -27 -8
0 -19 9 -25 20 -6 11 -20 20 -31 20 -16 0 -19 -4 -14 -20 5 -14 2 -20 -9 -20
-13 0 -16 12 -16 55 l0 55 44 0 c27 0 48 -6 57 -16z"/>
<path d="M460 314 c0 -11 8 -14 27 -12 39 4 42 28 4 28 -21 0 -31 -5 -31 -16z"/>
<path d="M600 295 c0 -28 4 -35 20 -35 23 0 43 32 34 54 -3 9 -17 16 -30 16
-21 0 -24 -5 -24 -35z"/>
<path d="M970 295 c0 -34 2 -36 28 -33 23 3 27 8 27 33 0 25 -4 30 -27 33 -26
3 -28 1 -28 -33z"/>
<path d="M1720 315 c0 -10 10 -15 30 -15 20 0 30 5 30 15 0 10 -10 15 -30 15
-20 0 -30 -5 -30 -15z"/>
</g>
</svg>
